# Blender v2.79 (sub 0) OBJ File: ''
# www.blender.org
mtllib filets.mtl
o Cube_Cube.001
v -3.659545 -0.069602 -0.041639
v -3.659545 2.471865 -0.041639
v -3.659545 -0.069602 -2.694592
v -3.659545 1.520965 -2.694592
v 3.683467 -0.069602 -0.041639
v 3.683467 2.471865 -0.041639
v 3.683467 -0.069602 -2.694592
v 3.683467 1.520965 -2.694592
vt 0.000063 0.165399
vt 0.232379 0.207004
vt 0.180989 0.313609
vt 0.743555 0.393489
vt 0.706183 0.249375
vt 0.999937 0.236450
vt 0.800351 0.000063
vt 0.173681 0.000063
vn -1.0000 0.0000 0.0000
vn 0.0000 0.0000 -1.0000
vn 1.0000 0.0000 0.0000
vn 0.0000 0.9414 -0.3374
usemtl None
s off
f 1/1/1 4/2/1 3/3/1
f 4/2/2 7/4/2 3/3/2
f 8/5/3 5/6/3 7/4/3
f 4/2/4 6/7/4 8/5/4
f 1/1/1 2/8/1 4/2/1
f 4/2/2 8/5/2 7/4/2
f 8/5/3 6/7/3 5/6/3
f 4/2/4 2/8/4 6/7/4
